<?xml version="1.0" encoding="UTF-8"?>
<svg version="1.1" xmlns="http://www.w3.org/2000/svg" width="192" height="187">
<path d="M0 0 C63.36 0 126.72 0 192 0 C192 61.71 192 123.42 192 187 C128.64 187 65.28 187 0 187 C0 125.29 0 63.58 0 0 Z " fill="#0AA775" transform="translate(0,0)"/>
<path d="M0 0 C3.3 0 6.6 0 10 0 C10 3.63 10 7.26 10 11 C15.28 11 20.56 11 26 11 C26 14.63 26 18.26 26 22 C20.72 22 15.44 22 10 22 C10 28.27 10 34.54 10 41 C11.485 40.9175 12.97 40.835 14.5 40.75 C20.79286469 40.77666468 25.22430384 42.33920194 29.79296875 46.71875 C34.28417906 51.75402617 35.36549587 55.64803727 35.27734375 62.3671875 C34.69075989 67.93560332 32.22488208 72.18586032 28.0625 75.875 C21.83461171 80.19639187 17.46451716 80.19905379 10 80 C10 83.96 10 87.92 10 92 C6.7 92 3.4 92 0 92 C0 88.37 0 84.74 0 81 C-6.6 81 -13.2 81 -20 81 C-20 77.37 -20 73.74 -20 70 C-13.4 70 -6.8 70 0 70 C0 63.73 0 57.46 0 51 C-2.536875 51.0928125 -2.536875 51.0928125 -5.125 51.1875 C-10.79125513 51.15847949 -14.4390427 50.49924748 -18.62109375 46.41796875 C-23.51747438 41.02842748 -25.46850572 36.58433977 -25.23828125 29.265625 C-24.50379409 22.28197657 -20.98605122 18.65694384 -15.83984375 14.3828125 C-12.40710571 11.80279283 -10.13142376 11.8922189 -5.875 11.9375 C-3.93625 11.958125 -1.9975 11.97875 0 12 C0 8.04 0 4.08 0 0 Z " fill="#FBFDFC" transform="translate(89,47)"/>
<path d="M0 0 C12.54 0 25.08 0 38 0 C38 61.71 38 123.42 38 187 C24.47 187 10.94 187 -3 187 C-0.60716098 184.60716098 1.3989055 183.99632272 4.5625 182.8125 C17.20010243 177.62745498 24.77786302 168.8052958 30.95703125 156.84765625 C33.70593635 149.34221872 34.29681997 141.74542316 34.2746582 133.81542969 C34.27976913 132.85134689 34.28488007 131.8872641 34.29014587 130.89396667 C34.30393864 127.73653795 34.30309258 124.5793301 34.30078125 121.421875 C34.30467444 119.20526042 34.30901039 116.98864658 34.31376648 114.77203369 C34.32120702 110.13559548 34.32095359 105.49923344 34.31567383 100.86279297 C34.30988876 94.9544105 34.32679777 89.04634249 34.3500185 83.13801193 C34.36483347 78.56174938 34.36561691 73.98556116 34.36250877 69.40927887 C34.36301831 67.23263172 34.36818601 65.05598 34.37832069 62.87935638 C34.45554662 43.97231646 33.86144738 27.094856 20.0625 12.5625 C14.04030839 6.96963612 7.74137167 3.62653682 0 1 C0 0.67 0 0.34 0 0 Z " fill="#09312F" transform="translate(154,0)"/>
<path d="M0 0 C1.3668393 2.7336786 2.58357269 5.37886582 3.75 8.1875 C9.82669748 21.76546874 19.17813006 30.42106088 33 36 C34.65610843 36.3823529 36.32134992 36.73349898 38 37 C38 37.33 38 37.66 38 38 C25.46 38 12.92 38 0 38 C0 25.46 0 12.92 0 0 Z " fill="#093431" transform="translate(0,149)"/>
<path d="M0 0 C10.89 0 21.78 0 33 0 C30 2 30 2 27.36328125 3.4453125 C14.11230899 10.74098224 5.49467185 20.29413192 1 35 C0.67 35 0.34 35 0 35 C0 23.45 0 11.9 0 0 Z " fill="#092729" transform="translate(0,0)"/>
<path d="M0 0 C0 6.27 0 12.54 0 19 C-9.36497642 19 -9.36497642 19 -13.703125 14.78125 C-15 13 -15 13 -15.75 9.4375 C-14.82205205 5.18440521 -13.38036513 3.67284685 -10 1 C-7 0 -7 0 0 0 Z " fill="#17AE7D" transform="translate(89,69)"/>
<path d="M0 0 C9.15151515 0 9.15151515 0 11.5 1.9375 C14.44738699 5.54804906 14.77043152 7.37739136 14.46875 11.91015625 C13.795984 14.90957133 12.47644542 16.25192088 10 18 C8 19 8 19 0 19 C0 12.73 0 6.46 0 0 Z " fill="#13A878" transform="translate(99,98)"/>
</svg>
